<?xml version="1.0" encoding="UTF-8"?>
<svg width="14px" height="14px" viewBox="0 0 14 14" version="1.1" xmlns="http://www.w3.org/2000/svg" xmlns:xlink="http://www.w3.org/1999/xlink">
    <!-- Generator: Sketch 45.2 (43514) - http://www.bohemiancoding.com/sketch -->
    <title>ic_application</title>
    <desc>Created with Sketch.</desc>
    <defs></defs>
    <g id="Symbols" stroke="none" stroke-width="1" fill="none" fill-rule="evenodd">
        <g id="ic_application">
            <g>
                <rect id="Rectangle-6" x="0" y="0" width="14" height="14"></rect>
                <path d="M13.5331988,8.15045714 L13.5296967,8.16446575 L11.5649891,13.1567843 C11.4774352,13.4387076 11.2165249,13.6330771 10.920593,13.6330771 L2.95669786,13.6330771 C2.65901489,13.6330771 2.39460236,13.4352055 2.3105507,13.14978 L0.473671637,8.20824266 L0.468418408,8.19598513 L0.464916255,8.18197652 C0.442152263,8.09617378 0.435147958,8.00861996 0.447405492,7.92281722 C0.445654416,7.8948 0.44390334,7.86678278 0.44390334,7.83876556 L0.44390334,1.4315773 C0.44390334,0.844966732 0.921947175,0.366922896 1.50855774,0.366922896 L12.4913084,0.366922896 C13.077919,0.366922896 13.5559628,0.844966732 13.5577139,1.4315773 L13.5577139,7.83876556 C13.5577139,7.86152955 13.5577139,7.88429354 13.5559628,7.90355538 C13.5629671,7.98935812 13.5559628,8.07165871 13.5331988,8.15045714 L13.5331988,8.15045714 Z M8.35351508,8.90341996 L8.34826185,8.62850098 C8.33425324,7.84226771 7.79141958,7.31344266 6.99818201,7.31344266 C6.61119414,7.31344266 6.27848964,7.43776908 6.03859219,7.67416438 C5.79869473,7.91055969 5.667364,8.23976204 5.6603597,8.62850098 L5.65510647,8.90341996 L2.0513914,8.90341996 L3.44349708,12.2882505 L10.4337938,12.2882505 L11.8644231,8.90341996 L8.35351508,8.90341996 L8.35351508,8.90341996 Z M1.78697888,7.55859335 L4.54142193,7.55859335 C4.96693348,6.55872877 5.87223993,5.96861605 6.99993309,5.96861605 C7.59004581,5.96861605 8.13813269,6.13321722 8.581155,6.44490881 C8.96989395,6.71807671 9.27283015,7.09981135 9.4689507,7.55859335 L12.2093851,7.55859335 L12.2093851,1.71174951 L1.78697888,1.71174951 L1.78697888,7.55859335 L1.78697888,7.55859335 Z" id="Shape" fill="#9098B8" transform="translate(7.000000, 7.000000) scale(1, -1) translate(-7.000000, -7.000000) "></path>
            </g>
        </g>
    </g>
</svg>